<?xml version="1.0" encoding="iso-8859-1"?>
<!-- Generator: Adobe Illustrator 25.1.0, SVG Export Plug-In . SVG Version: 6.00 Build 0)  -->
<svg version="1.1" id="Layer_1" xmlns="http://www.w3.org/2000/svg" xmlns:xlink="http://www.w3.org/1999/xlink" x="0px" y="0px"
	 width="250" height="250" viewBox="0 0 471.734 641.857" enable-background="new 0 0 471.734 641.857"
	 xml:space="preserve">
<path fill="#E6E6E6" d="M257.869,33.18C248.98,22.883,241.764,11.705,235.867,0c-5.897,11.705-13.113,22.883-22.003,33.18
	C158.33,97.515,83.697,119.078,0,43.565v438.466c0,49.814,42.154,71.777,88.473,82.894c67.279,16.147,93.356,20.078,147.394,76.932
	c54.038-56.855,80.115-60.785,147.394-76.932c46.319-11.117,88.473-33.08,88.473-82.894V43.565
	C388.036,119.078,313.404,97.515,257.869,33.18z"/>
<g>
	<path fill="#E6E6E6" d="M257.869,33.18C248.98,22.883,241.764,11.705,235.867,0c-5.897,11.705-13.113,22.883-22.003,33.18
		C158.33,97.515,83.697,119.078,0,43.565v438.466c0,49.814,42.154,71.777,88.473,82.894c67.279,16.147,93.356,20.078,147.394,76.932
		c54.038-56.855,80.115-60.785,147.394-76.932c46.319-11.117,88.473-33.08,88.473-82.894V43.565
		C388.036,119.078,313.404,97.515,257.869,33.18z M386.54,539.061l-25.083,7.041c-37.58,4.841-74.104,13.994-123.742,65.744
		c-0.088-0.088-0.176-0.176-0.176-0.264c-0.088,0.088-0.176,0.176-0.176,0.264c-49.638-51.662-86.162-60.903-123.742-65.744
		l-25.083-7.041c-32.036-11.881-66.712-27.107-67.504-72.08V80.089c59.143,46.821,145.04,39.165,195.822-19.01
		c8.361-9.593,15.226-19.978,20.682-30.892c5.457,10.913,12.321,21.298,20.682,30.892c28.619,32.729,68.297,49.467,108.063,49.512
		c30.937,0.043,61.918-10.014,87.759-30.502l0,386.892C453.252,512.042,418.576,527.268,386.54,539.061z M42.509,266.934v185.789
		c0.792,41.365,31.948,55.358,60.815,66.272l22.531,6.425c33.884,4.4,66.8,12.849,111.509,60.375
		c0.088-0.088,0.088-0.176,0.176-0.264c0.088,0.088,0.088,0.176,0.176,0.264c44.709-47.438,77.625-55.974,111.509-60.375
		l22.531-6.425c28.867-10.913,60.023-24.907,60.815-66.272l0.088-185.789h-0.088H42.509z M189.75,320.973h-9.593v190.19v0.176
		l-33.18-10.297l-37.228-106.668v61.255c7.481,2.992,12.145,5.809,12.145,5.809l2.64,33.18c0,0-23.851-10.209-33.444-12.673
		c-11.881-3.08-28.339-3.696-28.339-3.696l-2.376-29.923c0,0,6.865,0,14.786,0.44V319.212h-9.857v-29.395h44.357v0.088
		l35.996,102.972v-71.904h-10.033v-29.395h54.126V320.973z M302.578,338.31h-23.323l-7.393-17.25h-22.707v54.214h17.69l4.665-13.025
		h19.362v54.478h-19.362l-4.313-12.145h-18.042v95.315c7.217,3.168,11.705,5.985,11.705,5.985v29.483c0,0-22.971-10.737-32.3-13.554
		c-11.529-3.52-27.899-5.281-27.899-5.281v-26.667l14.082,1.32V320.973h-12.321v-29.395h100.155V338.31z M412.679,478.335
		c0,0-27.195,2.376-52.542,12.585c-13.201,5.369-40.309,20.77-51.222,27.019v-33.62c4.048-2.552,8.977-5.545,14.874-8.537V321.061
		l-10.033-4.576v-24.907h54.566v24.907l-10.033,4.576v140.992c8.185-2.288,18.13-4.665,27.195-6.689v-41.893h27.195V478.335z"/>
	<path fill="#E6E6E6" d="M128.759,162.819l-17.514-14.346h21.914l7.129-20.506l7.217,20.506h22.707l-18.13,14.434l6.953,21.694
		l-18.746-13.862l-18.746,13.862L128.759,162.819z M121.454,251.577l18.746-13.862l18.746,13.862l-6.953-21.694l18.13-14.434
		h-22.707l-7.217-20.506l-7.129,20.506h-21.914l17.514,14.346L121.454,251.577z M48.934,184.601l18.746-13.862l18.746,13.862
		l-6.865-21.694l18.13-14.434H74.896l-7.217-20.506l-7.129,20.506H38.636l17.514,14.346L48.934,184.601z M49.55,251.577
		l18.658-13.862l18.746,13.862l-6.865-21.694l18.13-14.434H75.513l-7.217-20.506l-7.217,20.506H39.252l17.514,14.346L49.55,251.577z
		"/>
	<path fill="#E6E6E6" d="M291.313,107.02c-0.012,0.009-0.027,0.02-0.039,0.028c-0.015-0.036-0.034-0.082-0.049-0.116
		c-4.84,3.52-14.61,10.825-25.875,20.594l0.12,0.061c-0.011,0.009-0.021,0.018-0.032,0.027l11.497,5.836
		c-1.309,1.049-2.619,2.183-3.928,3.317l-28.656-14.635c1.484-1.048,2.968-2.095,4.365-3.055l9.417,4.841
		c12.761-10.385,23.411-16.106,29.219-18.834c-0.072-0.006-0.161-0.012-0.235-0.018c0.047-0.022,0.1-0.048,0.147-0.07
		c-13.73-1.144-67.592-2.552-95.227,42.157c-15.171,24.591-17.801,48.091-16.482,65.799c1.007,13.772,4.413,24.052,6.185,28.635
		c3.52-9.769,14.61-38.724,30.804-65.215l-0.041-0.021c0.014-0.022,0.027-0.045,0.041-0.067l-11.317-5.79
		c0.695-1.385,1.472-2.77,2.164-4.155l28.209,14.412c-0.863,1.298-1.643,2.597-2.422,3.982l-10.737-5.545
		c-16.81,25.875-30.276,56.502-33.972,65.127c0.011,0.001,0.025,0.003,0.036,0.004c-0.011,0.026-0.025,0.058-0.036,0.084
		c10.649,1.32,68.56,5.809,100.683-43.741C311.555,160.178,295.186,116.085,291.313,107.02z M238.155,172.06l-29.043-14.874
		c0.968-1.496,2.024-2.904,3.08-4.313l29.395,15.05C240.443,169.243,239.299,170.651,238.155,172.06z M248.98,159.562L219.2,144.364
		c1.123-1.212,2.164-2.423,3.29-3.548l29.867,15.285C251.231,157.31,250.106,158.437,248.98,159.562z M260.422,148.209
		l-29.747-15.226c1.408-1.232,2.816-2.464,4.313-3.696l29.571,15.138C263.15,145.657,261.83,146.889,260.422,148.209z"/>
	<path fill="#E6E6E6" d="M364.362,215.449l-18.13,14.434l6.953,21.694l-18.746-13.862l-18.658,13.862l7.217-21.783l-17.514-14.346
		h21.915l7.041-20.506l7.217,20.506H364.362z M315.34,184.601l18.658-13.862l18.746,13.862l-6.865-21.694l18.13-14.434h-22.707
		l-7.217-20.506l-7.217,20.506h-21.915l17.602,14.346L315.34,184.601z M406.518,194.942l-7.129,20.506h-21.915l17.514,14.346
		l-7.217,21.783l18.746-13.862l18.746,13.862l-6.953-21.694l18.13-14.434h-22.707L406.518,194.942z M406.518,127.967l-7.129,20.506
		h-21.914l17.514,14.346l-7.217,21.782l18.746-13.862l18.834,13.862l-6.953-21.694l18.13-14.434h-22.795L406.518,127.967z"/>
</g>
<path fill="#1D3867" d="M366.284,110.591c-39.766-0.045-79.444-16.784-108.063-49.512c-8.361-9.593-15.226-19.978-20.682-30.892
	c-5.457,10.913-12.321,21.298-20.682,30.892c-50.782,58.175-136.68,65.832-195.822,19.01v386.892
	c0.792,44.973,35.468,60.199,67.504,72.08l25.083,7.041c37.58,4.841,74.105,14.082,123.742,65.744c0-0.088,0.088-0.176,0.176-0.264
	c0,0.088,0.088,0.176,0.176,0.264c49.638-51.75,86.162-60.903,123.742-65.744l25.083-7.041
	c32.036-11.793,66.712-27.019,67.504-72.08l0-386.892C428.202,100.577,397.221,110.634,366.284,110.591z M353.184,251.577
	l-18.746-13.862l-18.658,13.862l7.217-21.783l-17.514-14.346h21.915l7.041-20.506l7.217,20.506h22.707l-18.13,14.434
	L353.184,251.577z M326.869,148.473l7.217-20.506l7.217,20.506h22.707l-18.13,14.434l6.865,21.694l-18.746-13.862l-18.658,13.862
	l7.217-21.782l-17.602-14.346H326.869z M192.038,147.153c27.635-44.709,81.497-43.301,95.227-42.157
	c-0.047,0.022-0.1,0.048-0.147,0.07c0.074,0.006,0.163,0.012,0.235,0.018c-5.809,2.728-16.458,8.449-29.219,18.834l-9.417-4.841
	c-1.397,0.96-2.881,2.008-4.365,3.055l28.656,14.635c1.309-1.135,2.619-2.269,3.928-3.317l-11.497-5.836
	c0.011-0.009,0.021-0.018,0.032-0.027l-0.12-0.061c11.265-9.769,21.034-17.074,25.875-20.594c0.015,0.035,0.034,0.081,0.049,0.116
	c0.012-0.009,0.027-0.02,0.039-0.028c3.872,9.065,20.242,53.158-6.161,93.643c-32.124,49.55-90.034,45.061-100.683,43.741
	c0.011-0.026,0.025-0.058,0.036-0.084c-0.011-0.001-0.026-0.003-0.036-0.004c3.696-8.625,17.162-39.252,33.972-65.127l10.737,5.545
	c0.779-1.385,1.56-2.684,2.422-3.982l-28.209-14.412c-0.693,1.385-1.469,2.77-2.164,4.155l11.317,5.79
	c-0.014,0.022-0.027,0.045-0.041,0.067l0.041,0.021c-16.194,26.491-27.283,55.446-30.804,65.215
	c-1.772-4.583-5.178-14.864-6.185-28.635C174.237,195.244,176.867,171.744,192.038,147.153z M133.159,148.473l7.129-20.506
	l7.217,20.506h22.707l-18.13,14.434l6.953,21.694l-18.746-13.862l-18.746,13.862l7.217-21.782l-17.514-14.346H133.159z
	 M133.071,215.449l7.129-20.506l7.217,20.506h22.707l-18.13,14.434l6.953,21.694L140.2,237.715l-18.746,13.862l7.217-21.783
	l-17.514-14.346H133.071z M60.551,148.473l7.129-20.506l7.217,20.506h22.795l-18.13,14.434l6.865,21.694L67.68,170.739
	l-18.746,13.862l7.217-21.782l-17.514-14.346H60.551z M61.079,215.449l7.217-20.506l7.217,20.506h22.707l-18.13,14.434l6.865,21.694
	l-18.746-13.862L49.55,251.577l7.217-21.783l-17.514-14.346H61.079z M432.569,452.724c-0.792,41.365-31.948,55.358-60.815,66.272
	l-22.531,6.425c-33.884,4.4-66.8,12.937-111.509,60.375c-0.088-0.088-0.088-0.176-0.176-0.264c-0.088,0.088-0.088,0.176-0.176,0.264
	c-44.709-47.526-77.625-55.974-111.509-60.375l-22.531-6.425c-28.867-10.913-60.023-24.907-60.815-66.272V266.934h390.061h0.088
	L432.569,452.724z M418.312,229.882l6.953,21.694l-18.746-13.862l-18.746,13.862l7.217-21.783l-17.514-14.346h21.915l7.129-20.506
	l7.217,20.506h22.707L418.312,229.882z M418.4,162.907l6.953,21.694l-18.834-13.862l-18.746,13.862l7.217-21.782l-17.514-14.346
	h21.914l7.129-20.506l7.217,20.506h22.795L418.4,162.907z M238.155,172.06l-29.043-14.874c0.968-1.496,2.024-2.904,3.08-4.313
	l29.395,15.05C240.443,169.243,239.299,170.651,238.155,172.06z M260.422,148.209l-29.747-15.226
	c1.408-1.232,2.816-2.464,4.313-3.696l29.571,15.138C263.15,145.657,261.83,146.889,260.422,148.209z M248.98,159.562L219.2,144.364
	c1.123-1.212,2.164-2.423,3.29-3.548l29.867,15.285C251.231,157.31,250.106,158.437,248.98,159.562z"/>
<path fill="#B62226" d="M385.484,413.471h27.195v64.863c0,0-27.195,2.376-52.542,12.585c-13.201,5.369-40.309,20.77-51.222,27.019
	v-33.62c4.048-2.552,8.977-5.545,14.874-8.537V321.061l-10.033-4.576v-24.907h54.566v24.907l-10.033,4.576v140.992
	c8.185-2.288,18.13-4.665,27.195-6.689V413.471z M202.423,320.973h12.321v170.211l-14.082-1.32v26.667c0,0,16.37,1.76,27.899,5.281
	c9.329,2.816,32.3,13.554,32.3,13.554v-29.483c0,0-4.488-2.816-11.705-5.985v-95.315h18.042l4.313,12.145h19.362v-54.478h-19.362
	l-4.665,13.025h-17.69v-54.214h22.707l7.393,17.25h23.323v-46.733H202.423V320.973z M135.623,320.973h10.033v71.904l-35.996-102.972
	v-0.088H65.303v29.395h9.857v129.551c-7.921-0.44-14.786-0.44-14.786-0.44l2.376,29.923c0,0,16.458,0.616,28.339,3.696
	c9.593,2.464,33.444,12.673,33.444,12.673l-2.64-33.18c0,0-4.665-2.816-12.145-5.809v-61.255l37.228,106.668l33.18,10.297v-0.176
	v-190.19h9.593v-29.395h-54.126V320.973z"/>
<g>
</g>
<g>
</g>
<g>
</g>
<g>
</g>
<g>
</g>
</svg>
