<?xml version="1.0" encoding="utf-8"?>
<!-- Generator: Adobe Illustrator 19.2.1, SVG Export Plug-In . SVG Version: 6.00 Build 0)  -->
<svg version="1.1" id="layer" xmlns="http://www.w3.org/2000/svg" xmlns:xlink="http://www.w3.org/1999/xlink" x="0px" y="0px"
	 viewBox="0 0 652 652" style="enable-background:new 0 0 652 652;" xml:space="preserve" height="250" width="250">
<style type="text/css">
	.st0{fill:#FFFFFF;}
	.st1{fill:#111111;}
	.st2{fill:#E4E5E6;}
	.st3{fill:url(#SVGID_1_);}
	.st4{fill:url(#SVGID_2_);}
	.st5{fill:url(#SVGID_3_);}
	.st6{fill:url(#SVGID_4_);}
	.st7{fill:url(#SVGID_5_);}
	.st8{fill:url(#SVGID_6_);}
	.st9{fill:url(#SVGID_7_);}
	.st10{fill:url(#SVGID_8_);}
</style>
<path class="st0" d="M130,378.2c0-45.5,21.3-62.7,25.7-105.6c-6,37.7-31,68.6-31,105.7c0,14.3,2,27.3,5.6,39
	c15.8,52.2,62.4,81.3,107.6,92.8C168.2,492.4,130,433.9,130,378.2z M528.6,378.2c0-23.7-6.5-42.3-13.6-59.6
	c-8.5-20.6-17.8-39.1-17.8-61.9c0,55.3,26.4,70.9,26.4,121.5c0,55.7-38.2,114.2-107.9,131.9C478.7,494.1,528.6,448.1,528.6,378.2z"
	/>
<path class="st1" d="M503.4,509.8c-9.5,0-17.1,7.7-17.1,17.1c0,9.5,7.6,17.1,17.1,17.1c9.5,0,17.1-7.7,17.1-17.1
	C520.4,517.6,512.7,509.8,503.4,509.8z M503.4,540.2c-7.4,0-13.4-6-13.4-13.4c0-7.4,6-13.4,13.4-13.4c7.5,0,13.4,6,13.4,13.4
	C516.7,534.4,510.7,540.2,503.4,540.2z M510.4,522.9c0-3.2-2.6-5.7-5.7-5.7h-8.2v19.4h3.7v-7.8h2.6l3.7,7.8h4.1l-3.9-8.2
	C508.7,527.6,510.4,525.5,510.4,522.9z M504.5,525.1H500v-4.2h4.6c1.2,0,2.1,0.9,2.1,2.1C506.6,524.2,505.7,525.1,504.5,525.1z"/>
<path class="st2" d="M505.6,157.9c-14.3-4.2-24.5-15-30.8-32l-14.5-39.6l-6.7,25c13.7,61.5,64.3,65.9,64.3,65.9l20.6-9.6
	L505.6,157.9z M267.1,381.7l-26.4-40.5l-29.4,22.1c0,0,10.3,0.2,10.3,11.1v76.3l20.7-15.5v-54l23.7,36.1l22-16.5v-95.1l-20.7,15.5
	v60.5H267.1z M351.1,293.3l-23.4,17.5v-35.2l-31.7,23.7c0,0,10.3,0.2,10.3,11.1v76.3l21.3-16V336l23.4-17.5v34.8l20.2-15.3v-95.1
	L351,258.1v35.2C351,293.3,351.1,293.3,351.1,293.3z M410.3,284.4v-70.8l-31.7,23.7c0,0,10.3,0.2,10.3,11.1v76.3l58.8-44.2
	c-1.3-15.2,0-24.2,0-24.2L410.3,284.4z"/>
<linearGradient id="SVGID_1_" gradientUnits="userSpaceOnUse" x1="12832.7764" y1="12300.7188" x2="13025.4531" y2="12300.7188" gradientTransform="matrix(0.2752 0 0 0.2752 -3420.4478 -3087.9822)">
	<stop  offset="0.11" style="stop-color:#FFFFFF"/>
	<stop  offset="0.24" style="stop-color:#DCDFE1"/>
	<stop  offset="0.44" style="stop-color:#A8AFB3"/>
	<stop  offset="0.54" style="stop-color:#949CA1"/>
</linearGradient>
<path class="st3" d="M141.7,256.9c0,54-26.4,64.7-26.4,121.4c0,17.3,2.9,33.5,8.2,48.4c1.6-3.4,4.1-6.8,6.9-9.2
	c-3.6-11.8-5.5-24.8-5.5-39c0-37,25-68,31-105.6c0.5-4.9,0.8-10,0.8-15.8c0-43.1-20.6-79.6-20.6-79.6l-20.6-9.7l14,31.7
	C136.3,215.1,141.7,234.7,141.7,256.9z"/>
<linearGradient id="SVGID_2_" gradientUnits="userSpaceOnUse" x1="517.9043" y1="835.2043" x2="517.9043" y2="684.1176" gradientTransform="matrix(1 0 0 1 0 -516.645)">
	<stop  offset="0" style="stop-color:#FFFFFF"/>
	<stop  offset="0.35" style="stop-color:#FFFFFF"/>
	<stop  offset="0.56" style="stop-color:#949CA1"/>
	<stop  offset="1" style="stop-color:#949CA1"/>
</linearGradient>
<path class="st4" d="M497.3,256.6c0,22.9,9.2,41.5,17.8,61.9l11.1-0.4c-6.9-17.1-13.9-33.4-13.9-61.5c0-22.1,5.4-41.7,12.3-57.6
	l14-31.7l-20.6,9.6C517.8,177.2,497.3,213.5,497.3,256.6z"/>
<linearGradient id="SVGID_3_" gradientUnits="userSpaceOnUse" x1="123.3612" y1="1008.1419" x2="327.0304" y2="1008.1419" gradientTransform="matrix(1 0 0 1 0 -516.645)">
	<stop  offset="0.15" style="stop-color:#FFFFFF"/>
	<stop  offset="0.21" style="stop-color:#FAFAFA"/>
	<stop  offset="0.29" style="stop-color:#EBECED"/>
	<stop  offset="0.37" style="stop-color:#D2D5D7"/>
	<stop  offset="0.45" style="stop-color:#AFB5B9"/>
	<stop  offset="0.51" style="stop-color:#949CA1"/>
</linearGradient>
<path class="st5" d="M310.7,526.6c-16.8-6.1-39.6-8.2-72.8-16.6c-45.2-11.5-92-40.5-107.6-92.8c-2.8,2.6-5.1,5.8-6.9,9.2
	c17.9,50.4,62.5,85.8,110.9,98.2c31,7.8,45.3,8.6,68.5,15.1c3,3.2,24.3,26.2,24.3,26.2v-22.1C326.9,543.7,312.9,528.7,310.7,526.6z"
	/>
<linearGradient id="SVGID_4_" gradientUnits="userSpaceOnUse" x1="447.698" y1="997.9902" x2="206.4752" y2="653.6201" gradientTransform="matrix(1 0 0 1 0 -516.645)">
	<stop  offset="0" style="stop-color:#949CA1"/>
	<stop  offset="1.000000e-002" style="stop-color:#99A1A6"/>
	<stop  offset="0.12" style="stop-color:#C2C6C8"/>
	<stop  offset="0.2" style="stop-color:#DBDDDE"/>
	<stop  offset="0.25" style="stop-color:#E4E5E6"/>
	<stop  offset="0.75" style="stop-color:#E4E5E6"/>
	<stop  offset="0.8" style="stop-color:#DCDEDF"/>
	<stop  offset="0.87" style="stop-color:#C7CACD"/>
	<stop  offset="0.97" style="stop-color:#A3AAAE"/>
	<stop  offset="1" style="stop-color:#949CA1"/>
</linearGradient>
<path class="st6" d="M241.6,495.5c36.9,9.3,61,10.4,77.1,18.2c0,0,6,5.4,8.2,7.8c2.2-2.5,8.2-7.8,8.2-7.8
	c16.2-7.7,40.3-8.9,77.1-18.2c46.5-11.8,96.8-52.8,96.8-117.2c0-46-26.4-63-26.4-121.5c0-39.5,14.8-69.8,14.8-69.8
	s-34.4-6.9-50.4-50.5c0,0-22.8,21.4-54.3,21.4c-39.5,0-65.7-27.7-65.7-27.7s-26.3,27.7-65.7,27.7c-31.4,0-54.2-21.4-54.2-21.4
	c-16,43.6-50.4,50.5-50.4,50.5s14.8,30.4,14.8,69.9c0,58.5-26.4,75.5-26.4,121.5C144.9,442.7,195.1,483.6,241.6,495.5z M491.9,378.2
	c0,54.7-43.6,90.6-84,100.8c-29.2,7.4-64.9,11.3-75.6,17.4c-2.5,1.8-5.4,5-5.4,5s-2.9-3.2-5.5-4.9c-10.9-6.1-46.5-9.9-75.6-17.4
	c-1.1-0.2-2.2-0.6-3.3-0.9l229.7-172.5C480,333,491.9,350.9,491.9,378.2z M475.5,196.1c-4.7,14-10,35.6-10,60.5
	c0,10.4,0.7,19.6,2,27.9L221,469.6c-30.8-15.9-57.8-46.3-59.2-88.1L445,168.9C455,182.4,466.2,191,475.5,196.1z M188.2,256.6
	c0-25-5.5-46.6-10-60.5c10.9-6,24.5-16.5,35.3-34.7c11.7,6.5,28.2,13.1,47.7,13.1c29.6,0,52.6-12.9,65.8-22.6
	c13.1,9.7,36.1,22.6,65.7,22.6c4.7,0,9.2-0.4,13.6-1.1L164.8,354.7C171.7,327.4,188.2,304.8,188.2,256.6z"/>
<linearGradient id="SVGID_5_" gradientUnits="userSpaceOnUse" x1="193.471" y1="631.1262" x2="327.0304" y2="631.1262" gradientTransform="matrix(1 0 0 1 0 -516.645)">
	<stop  offset="0.25" style="stop-color:#FFFFFF"/>
	<stop  offset="0.34" style="stop-color:#FAFAFA"/>
	<stop  offset="0.45" style="stop-color:#EBECED"/>
	<stop  offset="0.57" style="stop-color:#D2D5D7"/>
	<stop  offset="0.7" style="stop-color:#AFB5B9"/>
	<stop  offset="0.79" style="stop-color:#949CA1"/>
</linearGradient>
<path class="st7" d="M261.2,142.6c39.7,0,65.8-33.7,65.8-33.7v-21l-20.7,20.6c-10.6,10.5-27.7,19.2-45,19.2
	c-12.9,0-25-5.7-35.5-14.5l-32.4-26.8l6.8,25C200.1,111.4,230.5,142.6,261.2,142.6z"/>
<linearGradient id="SVGID_6_" gradientUnits="userSpaceOnUse" x1="326.9134" y1="958.8313" x2="538.6452" y2="958.8313" gradientTransform="matrix(1 0 0 1 0 -516.645)">
	<stop  offset="0.2" style="stop-color:#FFFFFF"/>
	<stop  offset="0.33" style="stop-color:#FAFBFB"/>
	<stop  offset="0.47" style="stop-color:#EDEEEF"/>
	<stop  offset="0.63" style="stop-color:#D7DADC"/>
	<stop  offset="0.79" style="stop-color:#B8BDC1"/>
	<stop  offset="0.93" style="stop-color:#949CA1"/>
</linearGradient>
<path class="st8" d="M528.6,378.2c0,69.9-49.9,115.9-112.8,131.9c-33.1,8.4-56,10.5-72.8,16.6c-2.1,2-16.1,17.2-16.1,17.2v22.1
	c0,0,21.3-23,24.3-26.2c23-6.4,37.5-7.2,68.4-15c62.5-16.1,119.1-70.6,119.1-146.4c0-27.2-6.1-43.9-12.5-59.9l-11,0.4
	C522.1,335.9,528.6,354.4,528.6,378.2z"/>
<linearGradient id="SVGID_7_" gradientUnits="userSpaceOnUse" x1="326.9134" y1="631.1262" x2="460.239" y2="631.1262" gradientTransform="matrix(1 0 0 1 0 -516.645)">
	<stop  offset="0.25" style="stop-color:#FFFFFF"/>
	<stop  offset="0.34" style="stop-color:#FAFAFA"/>
	<stop  offset="0.45" style="stop-color:#EBECED"/>
	<stop  offset="0.57" style="stop-color:#D2D5D7"/>
	<stop  offset="0.7" style="stop-color:#AFB5B9"/>
	<stop  offset="0.79" style="stop-color:#949CA1"/>
</linearGradient>
<path class="st9" d="M392.6,142.6c30.7,0,61-31.2,61-31.2l6.7-25L428.1,113c-10.5,8.8-22.7,14.5-35.5,14.5c-17.2,0-34.4-8.6-45-19.2
	l-20.7-20.6v21C326.9,108.9,353,142.6,392.6,142.6z"/>
<linearGradient id="SVGID_8_" gradientUnits="userSpaceOnUse" x1="115.4153" y1="648.4784" x2="200.1314" y2="648.4784" gradientTransform="matrix(1 0 0 1 0 -516.645)">
	<stop  offset="0.39" style="stop-color:#FFFFFF"/>
	<stop  offset="0.47" style="stop-color:#FAFAFA"/>
	<stop  offset="0.57" style="stop-color:#EBECED"/>
	<stop  offset="0.67" style="stop-color:#D2D5D7"/>
	<stop  offset="0.79" style="stop-color:#AFB5B9"/>
	<stop  offset="0.87" style="stop-color:#949CA1"/>
</linearGradient>
<path class="st10" d="M200.1,111.4l-6.8-25L178.9,126c-6.2,17.1-16.6,27.8-30.8,32l-32.7,9.7l20.6,9.6
	C135.9,177.2,186.5,172.7,200.1,111.4z"/>
<path class="st1" d="M164.8,354.7l241.3-181.1c-4.3,0.7-8.9,1.2-13.6,1.2c-29.4,0-52.5-12.9-65.7-22.6
	c-13.2,9.7-36.1,22.6-65.7,22.6c-19.4,0-36-6.5-47.7-13.1c-10.9,18.1-24.5,28.6-35.3,34.7c4.7,14,10,35.6,10,60.5
	C188.2,304.8,171.7,327.4,164.8,354.7z M242.4,478.2c1.2,0.2,2.2,0.7,3.3,0.9c29.2,7.4,65,11.3,75.7,17.4c2.5,1.8,5.5,5,5.5,5
	s2.9-3.2,5.4-4.9c10.9-6.1,46.5-9.9,75.7-17.4c40.4-10.3,84-46.3,84-100.8c0-27.2-11.9-45.1-19.7-72.4L242.4,478.2z M135,256.9
	c0,51.9-26.4,63.7-26.4,121.4c0,83.1,64.3,137.4,124,152.7c30.1,7.4,39.3,7.8,66.5,14.5c2.2,2.5,27.8,29.9,27.8,29.9
	s25.5-27.6,27.7-29.9c27.3-6.8,36.3-7.2,66.5-14.5c59.7-15.3,124-69.8,124-152.7c0-57.7-26.4-69.4-26.4-121.4c0-18.8,4-37.3,11.7-55
	l16.9-38.3l-39.8-11.7c-12.2-3.6-21-13.1-26.6-28l-17.5-48.4L424,108c-10.4,8.6-21,13.1-31.3,13.1c-13.9,0-29.8-6.8-40.3-17.3
	l-25.5-25l-25.4,25.1c-10.6,10.4-26.4,17.3-40.3,17.3c-10.4,0-21-4.3-31.3-13.1l-39.5-32.7l-17.5,48.3c-5.5,15-14.5,24.4-26.5,28
	l-40,11.7l16.9,38.3C131.1,219.6,135,238,135,256.9z M148.1,157.9c14.3-4.2,24.7-15,30.8-32l14.5-39.6l32.1,26.6
	c10.6,8.8,22.7,14.5,35.5,14.5c17.3,0,34.4-8.6,45-19.2l20.7-20.6l20.7,20.6c10.6,10.5,27.7,19.2,45,19.2c12.9,0,25-5.7,35.5-14.5
	l32.1-26.6l14.5,39.6c6.2,17.1,16.6,27.8,30.8,32l32.7,9.7l-13.9,31.7c-7,15.9-12.3,35.5-12.3,57.6c0,27.9,7.1,44.3,14,61.5
	c6.4,16,12.5,32.6,12.5,59.9c0,76-56.4,130.4-119,146.5c-30.8,7.8-45.3,8.6-68.4,15.1c-3,3.2-24.3,26.2-24.3,26.2
	s-21.3-23-24.3-26.2c-23-6.4-37.4-7.2-68.5-15c-48.1-12.6-92.8-47.9-110.7-98.3c-5.3-14.8-8.2-31.1-8.2-48.4
	c0-56.7,26.4-67.4,26.4-121.4c0-22.1-5.3-41.7-12.3-57.6l-13.9-31.5L148.1,157.9z M221,469.6l246.4-185.1c-1.3-8.3-2-17.5-2-27.9
	c0-25,5.5-46.6,10-60.5c-9.3-5-20.6-13.6-30.5-27.2L161.8,381.5C163.2,423.4,190.2,453.8,221,469.6z M410.3,213.6v70.8l37.5-28.2
	c0,0-1.3,9.1,0,24.2l-58.8,44.2v-76.3c0-10.9-10.3-11.1-10.3-11.1L410.3,213.6z M327.7,275.7v35.2l23.4-17.5v-35.2l20.2-15.3V338
	l-20.2,15.3v-34.8L327.7,336v34.8l-21.3,16v-76.3c0-10.8-10.3-11.1-10.3-11.1L327.7,275.7z M240.6,341.1l26.4,40.5v-60.4l20.7-15.5
	v95.1l-22,16.5L242,381.2v54l-20.7,15.5v-76.3c0-10.9-10.3-11.1-10.3-11.1L240.6,341.1z M155.7,272.4
	c-4.3,43.1-25.7,60.3-25.7,105.7c0,55.7,38.2,114.2,108,131.9c33.1,8.4,56.1,10.5,72.9,16.6c2.1,2,16.2,17.2,16.2,17.2
	s14-15.2,16.2-17.2c16.8-6.1,39.7-8.2,72.8-16.6c69.8-17.6,108-76.1,108-131.8c0-50.6-26.4-66.3-26.4-121.5
	c0-43.1,20.7-79.6,20.7-79.6s-50.6-4.4-64.3-65.8c0,0-30.4,31.3-61,31.3c-39.6,0-65.7-33.7-65.7-33.7s-26.1,33.7-65.7,33.7
	c-30.7,0-61-31.2-61-31.2c-13.7,61.5-64.3,65.9-64.3,65.9s20.7,36.5,20.7,79.6C156.4,262.2,156.2,267.6,155.7,272.4z M156.4,186.9
	c0,0,34.4-6.9,50.4-50.5c0,0,22.9,21.4,54.2,21.4c39.5,0,65.8-27.7,65.8-27.7s26.2,27.7,65.7,27.7c31.5,0,54.3-21.4,54.3-21.4
	c16,43.6,50.4,50.5,50.4,50.5s-14.8,30.4-14.8,69.9c0,58.5,26.4,75.5,26.4,121.5c0,64.5-50.2,105.4-96.8,117.3
	c-36.8,9.3-60.9,10.4-77.1,18.2c0,0-6,5.4-8.2,7.8c-2.2-2.5-8.2-7.8-8.2-7.8c-16.1-7.7-40.3-8.9-77.1-18.2
	c-46.5-11.8-96.8-52.8-96.8-117.2c0-46,26.4-63,26.4-121.5C171.4,217.3,156.4,186.9,156.4,186.9z"/>
</svg>
